<svg width="361" height="57" viewBox="0 0 361 57" fill="none" xmlns="http://www.w3.org/2000/svg">
<path d="M10 37.5V31.5C10 30.9696 10.2107 30.4609 10.5858 30.0858C10.9609 29.7107 11.4696 29.5 12 29.5H14C14.5304 29.5 15.0391 29.7107 15.4142 30.0858C15.7893 30.4609 16 30.9696 16 31.5V37.5M6 28.5H4L13 19.5L22 28.5H20V35.5C20 36.0304 19.7893 36.5391 19.4142 36.9142C19.0391 37.2893 18.5304 37.5 18 37.5H8C7.46957 37.5 6.96086 37.2893 6.58579 36.9142C6.21071 36.5391 6 36.0304 6 35.5V28.5Z" stroke="#8F8F8F" stroke-width="1.75" stroke-linecap="round" stroke-linejoin="round"/>
<path d="M43.08 22V10.825H46.725C47.905 10.825 48.93 11.065 49.8 11.545C50.68 12.015 51.36 12.67 51.84 13.51C52.32 14.34 52.56 15.305 52.56 16.405C52.56 17.495 52.32 18.465 51.84 19.315C51.36 20.155 50.68 20.815 49.8 21.295C48.93 21.765 47.905 22 46.725 22H43.08ZM45.12 20.2H46.77C47.53 20.2 48.185 20.045 48.735 19.735C49.295 19.415 49.73 18.975 50.04 18.415C50.35 17.845 50.505 17.175 50.505 16.405C50.505 15.625 50.35 14.955 50.04 14.395C49.73 13.835 49.295 13.4 48.735 13.09C48.185 12.78 47.53 12.625 46.77 12.625H45.12V20.2ZM56.4642 22.18C55.8942 22.18 55.3992 22.085 54.9792 21.895C54.5592 21.705 54.2342 21.435 54.0042 21.085C53.7742 20.725 53.6592 20.31 53.6592 19.84C53.6592 19.39 53.7592 18.99 53.9592 18.64C54.1592 18.28 54.4692 17.98 54.8892 17.74C55.3092 17.5 55.8392 17.33 56.4792 17.23L59.1492 16.795V18.295L56.8542 18.685C56.4642 18.755 56.1742 18.88 55.9842 19.06C55.7942 19.24 55.6992 19.475 55.6992 19.765C55.6992 20.045 55.8042 20.27 56.0142 20.44C56.2342 20.6 56.5042 20.68 56.8242 20.68C57.2342 20.68 57.5942 20.595 57.9042 20.425C58.2242 20.245 58.4692 20 58.6392 19.69C58.8192 19.38 58.9092 19.04 58.9092 18.67V16.57C58.9092 16.22 58.7692 15.93 58.4892 15.7C58.2192 15.46 57.8592 15.34 57.4092 15.34C56.9892 15.34 56.6142 15.455 56.2842 15.685C55.9642 15.905 55.7292 16.2 55.5792 16.57L53.9742 15.79C54.1342 15.36 54.3842 14.99 54.7242 14.68C55.0742 14.36 55.4842 14.11 55.9542 13.93C56.4242 13.75 56.9342 13.66 57.4842 13.66C58.1542 13.66 58.7442 13.785 59.2542 14.035C59.7642 14.275 60.1592 14.615 60.4392 15.055C60.7292 15.485 60.8742 15.99 60.8742 16.57V22H59.0142V20.605L59.4342 20.575C59.2242 20.925 58.9742 21.22 58.6842 21.46C58.3942 21.69 58.0642 21.87 57.6942 22C57.3242 22.12 56.9142 22.18 56.4642 22.18ZM66.4854 22.18C65.6954 22.18 64.9904 21.995 64.3704 21.625C63.7504 21.245 63.2604 20.73 62.9004 20.08C62.5404 19.43 62.3604 18.71 62.3604 17.92C62.3604 17.12 62.5404 16.4 62.9004 15.76C63.2604 15.12 63.7504 14.61 64.3704 14.23C65.0004 13.85 65.7004 13.66 66.4704 13.66C67.0904 13.66 67.6404 13.785 68.1204 14.035C68.6104 14.275 68.9954 14.615 69.2754 15.055L68.9754 15.46V10.645H70.9404V22H69.0804V20.425L69.2904 20.815C69.0104 21.255 68.6204 21.595 68.1204 21.835C67.6204 22.065 67.0754 22.18 66.4854 22.18ZM66.6954 20.38C67.1454 20.38 67.5404 20.275 67.8804 20.065C68.2204 19.855 68.4854 19.565 68.6754 19.195C68.8754 18.825 68.9754 18.4 68.9754 17.92C68.9754 17.45 68.8754 17.03 68.6754 16.66C68.4854 16.28 68.2204 15.985 67.8804 15.775C67.5404 15.565 67.1454 15.46 66.6954 15.46C66.2554 15.46 65.8604 15.57 65.5104 15.79C65.1604 16 64.8854 16.29 64.6854 16.66C64.4954 17.02 64.4004 17.44 64.4004 17.92C64.4004 18.4 64.4954 18.825 64.6854 19.195C64.8854 19.565 65.1604 19.855 65.5104 20.065C65.8604 20.275 66.2554 20.38 66.6954 20.38ZM73.3985 15.115V14.14C73.7285 14.06 73.9935 13.915 74.1935 13.705C74.4035 13.485 74.5335 13.225 74.5835 12.925H73.6985V10.825H75.6785V12.115C75.6785 12.925 75.4835 13.59 75.0935 14.11C74.7135 14.62 74.1485 14.955 73.3985 15.115ZM81.2348 22.18C80.3648 22.18 79.6048 21.975 78.9548 21.565C78.3148 21.145 77.8748 20.58 77.6348 19.87L79.1048 19.165C79.3148 19.625 79.6048 19.985 79.9748 20.245C80.3548 20.505 80.7748 20.635 81.2348 20.635C81.5948 20.635 81.8798 20.555 82.0898 20.395C82.2998 20.235 82.4048 20.025 82.4048 19.765C82.4048 19.605 82.3598 19.475 82.2698 19.375C82.1898 19.265 82.0748 19.175 81.9248 19.105C81.7848 19.025 81.6298 18.96 81.4598 18.91L80.1248 18.535C79.4348 18.335 78.9098 18.03 78.5498 17.62C78.1998 17.21 78.0248 16.725 78.0248 16.165C78.0248 15.665 78.1498 15.23 78.3998 14.86C78.6598 14.48 79.0148 14.185 79.4648 13.975C79.9248 13.765 80.4498 13.66 81.0398 13.66C81.8098 13.66 82.4898 13.845 83.0798 14.215C83.6698 14.585 84.0898 15.105 84.3398 15.775L82.8398 16.48C82.6998 16.11 82.4648 15.815 82.1348 15.595C81.8048 15.375 81.4348 15.265 81.0248 15.265C80.6948 15.265 80.4348 15.34 80.2448 15.49C80.0548 15.64 79.9598 15.835 79.9598 16.075C79.9598 16.225 79.9998 16.355 80.0798 16.465C80.1598 16.575 80.2698 16.665 80.4098 16.735C80.5598 16.805 80.7298 16.87 80.9198 16.93L82.2248 17.32C82.8948 17.52 83.4098 17.82 83.7698 18.22C84.1398 18.62 84.3248 19.11 84.3248 19.69C84.3248 20.18 84.1948 20.615 83.9348 20.995C83.6748 21.365 83.3148 21.655 82.8548 21.865C82.3948 22.075 81.8548 22.18 81.2348 22.18ZM88.5009 22V10.645H90.4659V15.445L90.1959 15.16C90.3859 14.67 90.6959 14.3 91.1259 14.05C91.5659 13.79 92.0759 13.66 92.6559 13.66C93.2559 13.66 93.7859 13.79 94.2459 14.05C94.7159 14.31 95.0809 14.675 95.3409 15.145C95.6009 15.605 95.7309 16.14 95.7309 16.75V22H93.7659V17.215C93.7659 16.855 93.6959 16.545 93.5559 16.285C93.4159 16.025 93.2209 15.825 92.9709 15.685C92.7309 15.535 92.4459 15.46 92.1159 15.46C91.7959 15.46 91.5109 15.535 91.2609 15.685C91.0109 15.825 90.8159 16.025 90.6759 16.285C90.5359 16.545 90.4659 16.855 90.4659 17.215V22H88.5009ZM101.383 22.18C100.583 22.18 99.8525 21.995 99.1925 21.625C98.5425 21.255 98.0225 20.75 97.6325 20.11C97.2525 19.47 97.0625 18.74 97.0625 17.92C97.0625 17.1 97.2525 16.37 97.6325 15.73C98.0225 15.09 98.5425 14.585 99.1925 14.215C99.8425 13.845 100.573 13.66 101.383 13.66C102.183 13.66 102.908 13.845 103.558 14.215C104.208 14.585 104.723 15.09 105.103 15.73C105.493 16.36 105.688 17.09 105.688 17.92C105.688 18.74 105.493 19.47 105.103 20.11C104.713 20.75 104.193 21.255 103.543 21.625C102.893 21.995 102.173 22.18 101.383 22.18ZM101.383 20.38C101.823 20.38 102.208 20.275 102.538 20.065C102.878 19.855 103.143 19.565 103.333 19.195C103.533 18.815 103.633 18.39 103.633 17.92C103.633 17.44 103.533 17.02 103.333 16.66C103.143 16.29 102.878 16 102.538 15.79C102.208 15.57 101.823 15.46 101.383 15.46C100.933 15.46 100.538 15.57 100.198 15.79C99.8575 16 99.5875 16.29 99.3875 16.66C99.1975 17.02 99.1025 17.44 99.1025 17.92C99.1025 18.39 99.1975 18.815 99.3875 19.195C99.5875 19.565 99.8575 19.855 100.198 20.065C100.538 20.275 100.933 20.38 101.383 20.38ZM107.178 22V13.84H109.023V15.73L108.813 15.415C108.963 14.825 109.263 14.385 109.713 14.095C110.163 13.805 110.693 13.66 111.303 13.66C111.973 13.66 112.563 13.835 113.073 14.185C113.583 14.535 113.913 14.995 114.063 15.565L113.508 15.61C113.758 14.96 114.133 14.475 114.633 14.155C115.133 13.825 115.708 13.66 116.358 13.66C116.938 13.66 117.453 13.79 117.903 14.05C118.363 14.31 118.723 14.675 118.983 15.145C119.243 15.605 119.373 16.14 119.373 16.75V22H117.408V17.215C117.408 16.855 117.343 16.545 117.213 16.285C117.083 16.025 116.903 15.825 116.673 15.685C116.443 15.535 116.163 15.46 115.833 15.46C115.523 15.46 115.248 15.535 115.008 15.685C114.768 15.825 114.583 16.025 114.453 16.285C114.323 16.545 114.258 16.855 114.258 17.215V22H112.293V17.215C112.293 16.855 112.228 16.545 112.098 16.285C111.968 16.025 111.783 15.825 111.543 15.685C111.313 15.535 111.038 15.46 110.718 15.46C110.408 15.46 110.133 15.535 109.893 15.685C109.653 15.825 109.468 16.025 109.338 16.285C109.208 16.545 109.143 16.855 109.143 17.215V22H107.178ZM124.905 22.18C124.065 22.18 123.33 21.99 122.7 21.61C122.07 21.23 121.58 20.715 121.23 20.065C120.88 19.415 120.705 18.695 120.705 17.905C120.705 17.085 120.88 16.36 121.23 15.73C121.59 15.09 122.075 14.585 122.685 14.215C123.305 13.845 123.995 13.66 124.755 13.66C125.395 13.66 125.955 13.765 126.435 13.975C126.925 14.185 127.34 14.475 127.68 14.845C128.02 15.215 128.28 15.64 128.46 16.12C128.64 16.59 128.73 17.1 128.73 17.65C128.73 17.79 128.72 17.935 128.7 18.085C128.69 18.235 128.665 18.365 128.625 18.475H122.325V16.975H127.515L126.585 17.68C126.675 17.22 126.65 16.81 126.51 16.45C126.38 16.09 126.16 15.805 125.85 15.595C125.55 15.385 125.185 15.28 124.755 15.28C124.345 15.28 123.98 15.385 123.66 15.595C123.34 15.795 123.095 16.095 122.925 16.495C122.765 16.885 122.705 17.36 122.745 17.92C122.705 18.42 122.77 18.865 122.94 19.255C123.12 19.635 123.38 19.93 123.72 20.14C124.07 20.35 124.47 20.455 124.92 20.455C125.37 20.455 125.75 20.36 126.06 20.17C126.38 19.98 126.63 19.725 126.81 19.405L128.4 20.185C128.24 20.575 127.99 20.92 127.65 21.22C127.31 21.52 126.905 21.755 126.435 21.925C125.975 22.095 125.465 22.18 124.905 22.18Z" fill="#E1E1E1"/>
<path d="M44.314 43V34.42H42.481V33.315H45.601V43H44.314ZM52.2809 43V40.764H47.5229V39.711L52.2549 33.315H53.4769V39.711H54.7379V40.764H53.4769V43H52.2809ZM48.4849 40.166L48.3029 39.711H52.2809V34.381L52.6579 34.485L48.4849 40.166ZM55.3969 43L58.8679 33.315H60.3759L63.8469 43H62.4819L61.6889 40.725H57.5549L56.7619 43H55.3969ZM57.9579 39.555H61.2859L59.4399 34.238H59.8039L57.9579 39.555ZM65.1323 44.807V44.222C65.4009 44.1527 65.6046 44.0183 65.7433 43.819C65.8819 43.6197 65.9599 43.3467 65.9773 43H65.3923V41.44H66.6533V42.545C66.6533 43.169 66.5233 43.6717 66.2633 44.053C66.0119 44.4343 65.6349 44.6857 65.1323 44.807ZM74.5271 43.156C73.9118 43.156 73.3485 43.0433 72.8371 42.818C72.3258 42.584 71.8925 42.2677 71.5371 41.869C71.1818 41.4703 70.9261 41.024 70.7701 40.53L71.8751 40.075C72.1091 40.699 72.4558 41.18 72.9151 41.518C73.3831 41.8473 73.9291 42.012 74.5531 42.012C74.9345 42.012 75.2681 41.9513 75.5541 41.83C75.8401 41.7087 76.0611 41.5397 76.2171 41.323C76.3818 41.0977 76.4641 40.8377 76.4641 40.543C76.4641 40.1357 76.3471 39.815 76.1131 39.581C75.8878 39.3383 75.5541 39.1563 75.1121 39.035L73.3311 38.489C72.6291 38.2723 72.0918 37.93 71.7191 37.462C71.3465 36.994 71.1601 36.4567 71.1601 35.85C71.1601 35.3213 71.2858 34.8577 71.5371 34.459C71.7971 34.0517 72.1525 33.7353 72.6031 33.51C73.0625 33.276 73.5825 33.159 74.1631 33.159C74.7438 33.159 75.2681 33.263 75.7361 33.471C76.2128 33.679 76.6158 33.9607 76.9451 34.316C77.2745 34.6627 77.5171 35.0613 77.6731 35.512L76.5811 35.967C76.3731 35.421 76.0611 35.0093 75.6451 34.732C75.2291 34.446 74.7395 34.303 74.1761 34.303C73.8295 34.303 73.5218 34.3637 73.2531 34.485C72.9931 34.5977 72.7895 34.7667 72.6421 34.992C72.5035 35.2087 72.4341 35.4687 72.4341 35.772C72.4341 36.1273 72.5468 36.4437 72.7721 36.721C72.9975 36.9983 73.3398 37.2107 73.7991 37.358L75.4241 37.839C76.1868 38.073 76.7631 38.4067 77.1531 38.84C77.5431 39.2733 77.7381 39.8107 77.7381 40.452C77.7381 40.9807 77.5995 41.4487 77.3221 41.856C77.0535 42.2633 76.6765 42.584 76.1911 42.818C75.7145 43.0433 75.1598 43.156 74.5271 43.156ZM79.4604 43V33.159H80.6694V39.906L80.1754 39.789L83.8934 35.993H85.4404L82.7494 38.814L85.6224 43H84.1924L81.5664 39.204L82.3204 39.165L80.2794 41.297L80.6694 40.413V43H79.4604ZM87.0864 45.86C86.9304 45.86 86.7744 45.847 86.6184 45.821C86.4624 45.795 86.3151 45.7517 86.1764 45.691V44.612C86.2718 44.6293 86.3888 44.6467 86.5274 44.664C86.6748 44.69 86.8178 44.703 86.9564 44.703C87.3638 44.703 87.6714 44.612 87.8794 44.43C88.0961 44.2567 88.2998 43.9533 88.4904 43.52L88.9324 42.467L88.9064 43.52L85.9164 35.993H87.2294L89.5564 41.973H89.1664L91.4804 35.993H92.8194L89.6604 43.832C89.5131 44.2047 89.3224 44.5427 89.0884 44.846C88.8631 45.158 88.5858 45.405 88.2564 45.587C87.9271 45.769 87.5371 45.86 87.0864 45.86ZM97.9751 43V34.485H95.3491V33.315H101.849V34.485H99.2621V43H97.9751ZM105.348 43.156C104.672 43.156 104.061 43 103.515 42.688C102.969 42.3673 102.536 41.9297 102.215 41.375C101.894 40.8203 101.734 40.192 101.734 39.49C101.734 38.788 101.89 38.164 102.202 37.618C102.523 37.072 102.956 36.6387 103.502 36.318C104.048 35.9973 104.663 35.837 105.348 35.837C106.024 35.837 106.635 35.9973 107.181 36.318C107.727 36.63 108.156 37.059 108.468 37.605C108.789 38.151 108.949 38.7793 108.949 39.49C108.949 40.2007 108.784 40.8333 108.455 41.388C108.126 41.934 107.688 42.3673 107.142 42.688C106.605 43 106.007 43.156 105.348 43.156ZM105.348 41.986C105.781 41.986 106.171 41.8777 106.518 41.661C106.873 41.4443 107.151 41.1453 107.35 40.764C107.558 40.3827 107.662 39.958 107.662 39.49C107.662 39.0133 107.558 38.593 107.35 38.229C107.151 37.8563 106.873 37.5617 106.518 37.345C106.171 37.1197 105.781 37.007 105.348 37.007C104.906 37.007 104.507 37.1197 104.152 37.345C103.805 37.5617 103.528 37.8563 103.32 38.229C103.112 38.593 103.008 39.0133 103.008 39.49C103.008 39.958 103.112 40.3827 103.32 40.764C103.528 41.1453 103.805 41.4443 104.152 41.661C104.507 41.8777 104.906 41.986 105.348 41.986ZM112.011 43L109.606 35.993H110.945L112.856 41.856L112.388 41.843L114.26 35.993H115.404L117.276 41.843L116.808 41.856L118.732 35.993H120.058L117.653 43H116.496L114.65 37.15H115.014L113.168 43H112.011ZM124.236 43.156C123.56 43.156 122.958 42.9957 122.429 42.675C121.901 42.3543 121.485 41.9167 121.181 41.362C120.878 40.7987 120.726 40.1703 120.726 39.477C120.726 38.775 120.874 38.151 121.168 37.605C121.472 37.059 121.879 36.63 122.39 36.318C122.91 35.9973 123.491 35.837 124.132 35.837C124.652 35.837 125.112 35.9323 125.51 36.123C125.918 36.305 126.26 36.5563 126.537 36.877C126.823 37.189 127.04 37.5487 127.187 37.956C127.343 38.3547 127.421 38.7707 127.421 39.204C127.421 39.2993 127.413 39.4077 127.395 39.529C127.387 39.6417 127.374 39.75 127.356 39.854H121.61V38.814H126.654L126.082 39.282C126.16 38.8313 126.117 38.4283 125.952 38.073C125.788 37.7177 125.545 37.436 125.224 37.228C124.904 37.02 124.54 36.916 124.132 36.916C123.725 36.916 123.352 37.02 123.014 37.228C122.676 37.436 122.412 37.735 122.221 38.125C122.039 38.5063 121.966 38.9613 122 39.49C121.966 40.0013 122.044 40.452 122.234 40.842C122.434 41.2233 122.711 41.5223 123.066 41.739C123.43 41.947 123.825 42.051 124.249 42.051C124.717 42.051 125.112 41.9427 125.432 41.726C125.753 41.5093 126.013 41.232 126.212 40.894L127.226 41.414C127.088 41.7347 126.871 42.0293 126.576 42.298C126.29 42.558 125.948 42.766 125.549 42.922C125.159 43.078 124.722 43.156 124.236 43.156ZM128.998 43V35.993H130.181V37.28L130.051 37.098C130.215 36.6993 130.467 36.4047 130.805 36.214C131.143 36.0147 131.554 35.915 132.04 35.915H132.469V37.059H131.858C131.364 37.059 130.965 37.215 130.662 37.527C130.358 37.8303 130.207 38.2637 130.207 38.827V43H128.998ZM136.051 43.156C135.349 43.156 134.738 42.9827 134.218 42.636C133.698 42.2893 133.33 41.8213 133.113 41.232L134.075 40.764C134.275 41.18 134.548 41.5093 134.894 41.752C135.241 41.9947 135.627 42.116 136.051 42.116C136.433 42.116 136.749 42.025 137 41.843C137.252 41.661 137.377 41.4227 137.377 41.128C137.377 40.92 137.317 40.7553 137.195 40.634C137.083 40.504 136.944 40.4043 136.779 40.335C136.615 40.257 136.463 40.2007 136.324 40.166L135.271 39.867C134.639 39.685 134.175 39.425 133.88 39.087C133.594 38.749 133.451 38.3547 133.451 37.904C133.451 37.488 133.555 37.1283 133.763 36.825C133.98 36.513 134.27 36.2703 134.634 36.097C135.007 35.9237 135.423 35.837 135.882 35.837C136.498 35.837 137.048 35.993 137.533 36.305C138.027 36.617 138.378 37.0547 138.586 37.618L137.598 38.073C137.442 37.709 137.208 37.423 136.896 37.215C136.584 36.9983 136.233 36.89 135.843 36.89C135.488 36.89 135.206 36.981 134.998 37.163C134.79 37.3363 134.686 37.5573 134.686 37.826C134.686 38.0253 134.738 38.19 134.842 38.32C134.946 38.4413 135.072 38.5367 135.219 38.606C135.367 38.6667 135.51 38.7187 135.648 38.762L136.792 39.1C137.364 39.2647 137.806 39.5203 138.118 39.867C138.439 40.2137 138.599 40.6297 138.599 41.115C138.599 41.505 138.491 41.856 138.274 42.168C138.058 42.48 137.759 42.7227 137.377 42.896C136.996 43.0693 136.554 43.156 136.051 43.156ZM140.39 44.807V44.222C140.659 44.1527 140.862 44.0183 141.001 43.819C141.14 43.6197 141.218 43.3467 141.235 43H140.65V41.44H141.911V42.545C141.911 43.169 141.781 43.6717 141.521 44.053C141.27 44.4343 140.893 44.6857 140.39 44.807ZM150.916 43.156C150.231 43.156 149.599 43.0347 149.018 42.792C148.446 42.5407 147.943 42.1897 147.51 41.739C147.085 41.2883 146.756 40.7597 146.522 40.153C146.288 39.5463 146.171 38.8833 146.171 38.164C146.171 37.436 146.288 36.7687 146.522 36.162C146.756 35.5553 147.085 35.0267 147.51 34.576C147.935 34.1253 148.437 33.7787 149.018 33.536C149.599 33.2847 150.231 33.159 150.916 33.159C151.583 33.159 152.181 33.276 152.71 33.51C153.247 33.744 153.698 34.0473 154.062 34.42C154.435 34.7927 154.699 35.1913 154.855 35.616L153.685 36.149C153.46 35.6117 153.109 35.1783 152.632 34.849C152.155 34.511 151.583 34.342 150.916 34.342C150.24 34.342 149.638 34.5023 149.109 34.823C148.589 35.1437 148.182 35.59 147.887 36.162C147.592 36.734 147.445 37.4013 147.445 38.164C147.445 38.918 147.592 39.581 147.887 40.153C148.182 40.725 148.589 41.1713 149.109 41.492C149.638 41.8127 150.24 41.973 150.916 41.973C151.583 41.973 152.155 41.8083 152.632 41.479C153.109 41.141 153.46 40.7033 153.685 40.166L154.855 40.699C154.699 41.1237 154.435 41.5223 154.062 41.895C153.698 42.2677 153.247 42.571 152.71 42.805C152.181 43.039 151.583 43.156 150.916 43.156ZM159.646 43.156C158.97 43.156 158.359 43 157.813 42.688C157.267 42.3673 156.834 41.9297 156.513 41.375C156.192 40.8203 156.032 40.192 156.032 39.49C156.032 38.788 156.188 38.164 156.5 37.618C156.821 37.072 157.254 36.6387 157.8 36.318C158.346 35.9973 158.961 35.837 159.646 35.837C160.322 35.837 160.933 35.9973 161.479 36.318C162.025 36.63 162.454 37.059 162.766 37.605C163.087 38.151 163.247 38.7793 163.247 39.49C163.247 40.2007 163.082 40.8333 162.753 41.388C162.424 41.934 161.986 42.3673 161.44 42.688C160.903 43 160.305 43.156 159.646 43.156ZM159.646 41.986C160.079 41.986 160.469 41.8777 160.816 41.661C161.171 41.4443 161.449 41.1453 161.648 40.764C161.856 40.3827 161.96 39.958 161.96 39.49C161.96 39.0133 161.856 38.593 161.648 38.229C161.449 37.8563 161.171 37.5617 160.816 37.345C160.469 37.1197 160.079 37.007 159.646 37.007C159.204 37.007 158.805 37.1197 158.45 37.345C158.103 37.5617 157.826 37.8563 157.618 38.229C157.41 38.593 157.306 39.0133 157.306 39.49C157.306 39.958 157.41 40.3827 157.618 40.764C157.826 41.1453 158.103 41.4443 158.45 41.661C158.805 41.8777 159.204 41.986 159.646 41.986ZM164.824 43V35.993H166.007V37.358L165.812 37.241C165.985 36.799 166.262 36.4567 166.644 36.214C167.034 35.9627 167.489 35.837 168.009 35.837C168.511 35.837 168.958 35.9497 169.348 36.175C169.746 36.4003 170.058 36.7123 170.284 37.111C170.518 37.5097 170.635 37.9603 170.635 38.463V43H169.413V38.853C169.413 38.463 169.343 38.1337 169.205 37.865C169.066 37.5963 168.867 37.3883 168.607 37.241C168.355 37.085 168.065 37.007 167.736 37.007C167.406 37.007 167.112 37.085 166.852 37.241C166.6 37.3883 166.401 37.6007 166.254 37.878C166.106 38.1467 166.033 38.4717 166.033 38.853V43H164.824ZM172.365 43V35.993H173.548V37.358L173.353 37.241C173.526 36.799 173.803 36.4567 174.185 36.214C174.575 35.9627 175.03 35.837 175.55 35.837C176.052 35.837 176.499 35.9497 176.889 36.175C177.287 36.4003 177.599 36.7123 177.825 37.111C178.059 37.5097 178.176 37.9603 178.176 38.463V43H176.954V38.853C176.954 38.463 176.884 38.1337 176.746 37.865C176.607 37.5963 176.408 37.3883 176.148 37.241C175.896 37.085 175.606 37.007 175.277 37.007C174.947 37.007 174.653 37.085 174.393 37.241C174.141 37.3883 173.942 37.6007 173.795 37.878C173.647 38.1467 173.574 38.4717 173.574 38.853V43H172.365ZM181.96 43.156C181.5 43.156 181.093 43.0737 180.738 42.909C180.391 42.7357 180.118 42.5017 179.919 42.207C179.719 41.9037 179.62 41.557 179.62 41.167C179.62 40.7943 179.698 40.4607 179.854 40.166C180.018 39.8627 180.27 39.607 180.608 39.399C180.954 39.191 181.388 39.0437 181.908 38.957L184.508 38.528V39.542L182.181 39.932C181.73 40.01 181.401 40.153 181.193 40.361C180.993 40.569 180.894 40.8247 180.894 41.128C180.894 41.414 181.006 41.6523 181.232 41.843C181.466 42.0337 181.756 42.129 182.103 42.129C182.545 42.129 182.926 42.038 183.247 41.856C183.576 41.6653 183.832 41.4097 184.014 41.089C184.204 40.7683 184.3 40.413 184.3 40.023V38.242C184.3 37.8607 184.157 37.553 183.871 37.319C183.593 37.0763 183.225 36.955 182.766 36.955C182.367 36.955 182.012 37.059 181.7 37.267C181.396 37.4663 181.171 37.735 181.024 38.073L179.971 37.527C180.101 37.2063 180.309 36.9203 180.595 36.669C180.881 36.409 181.214 36.2053 181.596 36.058C181.977 35.9107 182.376 35.837 182.792 35.837C183.329 35.837 183.801 35.941 184.209 36.149C184.616 36.3483 184.932 36.63 185.158 36.994C185.392 37.3493 185.509 37.7653 185.509 38.242V43H184.326V41.674L184.547 41.752C184.399 42.0293 184.2 42.272 183.949 42.48C183.697 42.688 183.403 42.8527 183.065 42.974C182.727 43.0953 182.358 43.156 181.96 43.156ZM189.866 43.156C189.364 43.156 188.909 43.039 188.501 42.805C188.103 42.571 187.791 42.246 187.565 41.83C187.349 41.4053 187.24 40.92 187.24 40.374V35.993H188.449V40.244C188.449 40.5907 188.519 40.894 188.657 41.154C188.805 41.414 189.004 41.6177 189.255 41.765C189.515 41.9123 189.81 41.986 190.139 41.986C190.469 41.986 190.759 41.9123 191.01 41.765C191.27 41.6177 191.47 41.4053 191.608 41.128C191.756 40.8507 191.829 40.5213 191.829 40.14V35.993H193.051V43H191.868V41.635L192.063 41.752C191.899 42.194 191.617 42.5407 191.218 42.792C190.828 43.0347 190.378 43.156 189.866 43.156ZM198.265 45.86C197.771 45.86 197.312 45.782 196.887 45.626C196.471 45.47 196.112 45.2533 195.808 44.976C195.514 44.7073 195.288 44.391 195.132 44.027L196.263 43.507C196.385 43.8363 196.614 44.1137 196.952 44.339C197.299 44.573 197.732 44.69 198.252 44.69C198.651 44.69 199.011 44.612 199.331 44.456C199.661 44.3087 199.921 44.0833 200.111 43.78C200.302 43.4853 200.397 43.1257 200.397 42.701V41.128L200.618 41.362C200.376 41.8387 200.025 42.2027 199.565 42.454C199.115 42.7053 198.616 42.831 198.07 42.831C197.412 42.831 196.822 42.6793 196.302 42.376C195.782 42.064 195.375 41.6437 195.08 41.115C194.786 40.5777 194.638 39.984 194.638 39.334C194.638 38.6753 194.786 38.0817 195.08 37.553C195.375 37.0243 195.778 36.6083 196.289 36.305C196.809 35.993 197.399 35.837 198.057 35.837C198.603 35.837 199.097 35.9627 199.539 36.214C199.99 36.4567 200.35 36.7947 200.618 37.228L200.436 37.553V35.993H201.619V42.701C201.619 43.3077 201.476 43.8493 201.19 44.326C200.904 44.8027 200.506 45.1753 199.994 45.444C199.492 45.7213 198.915 45.86 198.265 45.86ZM198.174 41.661C198.59 41.661 198.963 41.557 199.292 41.349C199.63 41.141 199.899 40.8637 200.098 40.517C200.298 40.1617 200.397 39.7673 200.397 39.334C200.397 38.9093 200.298 38.5193 200.098 38.164C199.899 37.8087 199.63 37.527 199.292 37.319C198.963 37.111 198.59 37.007 198.174 37.007C197.75 37.007 197.364 37.111 197.017 37.319C196.671 37.527 196.398 37.8087 196.198 38.164C196.008 38.5107 195.912 38.9007 195.912 39.334C195.912 39.7673 196.008 40.1617 196.198 40.517C196.398 40.8637 196.666 41.141 197.004 41.349C197.351 41.557 197.741 41.661 198.174 41.661ZM203.494 43V33.159H204.703V37.358L204.482 37.241C204.655 36.799 204.932 36.4567 205.314 36.214C205.704 35.9627 206.159 35.837 206.679 35.837C207.181 35.837 207.628 35.9497 208.018 36.175C208.416 36.4003 208.728 36.7123 208.954 37.111C209.188 37.5097 209.305 37.9603 209.305 38.463V43H208.083V38.853C208.083 38.463 208.009 38.1337 207.862 37.865C207.723 37.5963 207.528 37.3883 207.277 37.241C207.025 37.085 206.735 37.007 206.406 37.007C206.085 37.007 205.795 37.085 205.535 37.241C205.275 37.3883 205.071 37.6007 204.924 37.878C204.776 38.1467 204.703 38.4717 204.703 38.853V43H203.494ZM213.882 43.078C213.197 43.078 212.668 42.883 212.296 42.493C211.932 42.103 211.75 41.5527 211.75 40.842V37.15H210.476V35.993H210.736C211.048 35.993 211.295 35.8977 211.477 35.707C211.659 35.5163 211.75 35.265 211.75 34.953V34.381H212.959V35.993H214.532V37.15H212.959V40.803C212.959 41.037 212.993 41.2407 213.063 41.414C213.141 41.5873 213.266 41.726 213.44 41.83C213.613 41.9253 213.843 41.973 214.129 41.973C214.189 41.973 214.263 41.9687 214.35 41.96C214.445 41.9513 214.532 41.9427 214.61 41.934V43C214.497 43.026 214.371 43.0433 214.233 43.052C214.094 43.0693 213.977 43.078 213.882 43.078ZM218.579 43V33.315H221.998C222.639 33.315 223.203 33.4363 223.688 33.679C224.173 33.9217 224.55 34.2683 224.819 34.719C225.096 35.1697 225.235 35.6983 225.235 36.305C225.235 36.9117 225.096 37.4403 224.819 37.891C224.55 38.333 224.173 38.6797 223.688 38.931C223.211 39.1737 222.648 39.295 221.998 39.295H219.853V43H218.579ZM219.853 38.125H222.037C222.427 38.125 222.765 38.0513 223.051 37.904C223.337 37.7567 223.558 37.5443 223.714 37.267C223.87 36.9897 223.948 36.669 223.948 36.305C223.948 35.9323 223.87 35.6117 223.714 35.343C223.558 35.0657 223.337 34.8533 223.051 34.706C222.765 34.5587 222.427 34.485 222.037 34.485H219.853V38.125ZM226.815 43V33.159H228.024V43H226.815ZM231.954 43.156C231.495 43.156 231.087 43.0737 230.732 42.909C230.385 42.7357 230.112 42.5017 229.913 42.207C229.714 41.9037 229.614 41.557 229.614 41.167C229.614 40.7943 229.692 40.4607 229.848 40.166C230.013 39.8627 230.264 39.607 230.602 39.399C230.949 39.191 231.382 39.0437 231.902 38.957L234.502 38.528V39.542L232.175 39.932C231.724 40.01 231.395 40.153 231.187 40.361C230.988 40.569 230.888 40.8247 230.888 41.128C230.888 41.414 231.001 41.6523 231.226 41.843C231.46 42.0337 231.75 42.129 232.097 42.129C232.539 42.129 232.92 42.038 233.241 41.856C233.57 41.6653 233.826 41.4097 234.008 41.089C234.199 40.7683 234.294 40.413 234.294 40.023V38.242C234.294 37.8607 234.151 37.553 233.865 37.319C233.588 37.0763 233.219 36.955 232.76 36.955C232.361 36.955 232.006 37.059 231.694 37.267C231.391 37.4663 231.165 37.735 231.018 38.073L229.965 37.527C230.095 37.2063 230.303 36.9203 230.589 36.669C230.875 36.409 231.209 36.2053 231.59 36.058C231.971 35.9107 232.37 35.837 232.786 35.837C233.323 35.837 233.796 35.941 234.203 36.149C234.61 36.3483 234.927 36.63 235.152 36.994C235.386 37.3493 235.503 37.7653 235.503 38.242V43H234.32V41.674L234.541 41.752C234.394 42.0293 234.194 42.272 233.943 42.48C233.692 42.688 233.397 42.8527 233.059 42.974C232.721 43.0953 232.353 43.156 231.954 43.156ZM240.627 43.156C239.943 43.156 239.332 42.9957 238.794 42.675C238.266 42.3543 237.85 41.9167 237.546 41.362C237.243 40.8073 237.091 40.1833 237.091 39.49C237.091 38.788 237.243 38.164 237.546 37.618C237.85 37.072 238.266 36.6387 238.794 36.318C239.332 35.9973 239.943 35.837 240.627 35.837C241.087 35.837 241.516 35.9193 241.914 36.084C242.313 36.2487 242.664 36.4697 242.967 36.747C243.271 37.0243 243.492 37.3493 243.63 37.722L242.551 38.242C242.387 37.878 242.135 37.5833 241.797 37.358C241.459 37.124 241.069 37.007 240.627 37.007C240.203 37.007 239.817 37.1153 239.47 37.332C239.132 37.5487 238.864 37.8433 238.664 38.216C238.465 38.5887 238.365 39.0177 238.365 39.503C238.365 39.971 238.465 40.3957 238.664 40.777C238.864 41.1497 239.132 41.4443 239.47 41.661C239.817 41.8777 240.203 41.986 240.627 41.986C241.069 41.986 241.459 41.8733 241.797 41.648C242.135 41.414 242.387 41.1063 242.551 40.725L243.63 41.271C243.492 41.635 243.271 41.96 242.967 42.246C242.664 42.5233 242.313 42.7443 241.914 42.909C241.516 43.0737 241.087 43.156 240.627 43.156ZM248.434 43.156C247.758 43.156 247.156 42.9957 246.627 42.675C246.099 42.3543 245.683 41.9167 245.379 41.362C245.076 40.7987 244.924 40.1703 244.924 39.477C244.924 38.775 245.072 38.151 245.366 37.605C245.67 37.059 246.077 36.63 246.588 36.318C247.108 35.9973 247.689 35.837 248.33 35.837C248.85 35.837 249.31 35.9323 249.708 36.123C250.116 36.305 250.458 36.5563 250.735 36.877C251.021 37.189 251.238 37.5487 251.385 37.956C251.541 38.3547 251.619 38.7707 251.619 39.204C251.619 39.2993 251.611 39.4077 251.593 39.529C251.585 39.6417 251.572 39.75 251.554 39.854H245.808V38.814H250.852L250.28 39.282C250.358 38.8313 250.315 38.4283 250.15 38.073C249.986 37.7177 249.743 37.436 249.422 37.228C249.102 37.02 248.738 36.916 248.33 36.916C247.923 36.916 247.55 37.02 247.212 37.228C246.874 37.436 246.61 37.735 246.419 38.125C246.237 38.5063 246.164 38.9613 246.198 39.49C246.164 40.0013 246.242 40.452 246.432 40.842C246.632 41.2233 246.909 41.5223 247.264 41.739C247.628 41.947 248.023 42.051 248.447 42.051C248.915 42.051 249.31 41.9427 249.63 41.726C249.951 41.5093 250.211 41.232 250.41 40.894L251.424 41.414C251.286 41.7347 251.069 42.0293 250.774 42.298C250.488 42.558 250.146 42.766 249.747 42.922C249.357 43.078 248.92 43.156 248.434 43.156ZM253.404 44.807V44.222C253.672 44.1527 253.876 44.0183 254.015 43.819C254.153 43.6197 254.231 43.3467 254.249 43H253.664V41.44H254.925V42.545C254.925 43.169 254.795 43.6717 254.535 44.053C254.283 44.4343 253.906 44.6857 253.404 44.807ZM259.471 43V33.315H260.537L266.101 41.141L265.62 41.193V33.315H266.907V43H265.841L260.303 35.122L260.745 35.07V43H259.471ZM272.149 43.156C271.473 43.156 270.871 42.9957 270.342 42.675C269.814 42.3543 269.398 41.9167 269.094 41.362C268.791 40.7987 268.639 40.1703 268.639 39.477C268.639 38.775 268.787 38.151 269.081 37.605C269.385 37.059 269.792 36.63 270.303 36.318C270.823 35.9973 271.404 35.837 272.045 35.837C272.565 35.837 273.025 35.9323 273.423 36.123C273.831 36.305 274.173 36.5563 274.45 36.877C274.736 37.189 274.953 37.5487 275.1 37.956C275.256 38.3547 275.334 38.7707 275.334 39.204C275.334 39.2993 275.326 39.4077 275.308 39.529C275.3 39.6417 275.287 39.75 275.269 39.854H269.523V38.814H274.567L273.995 39.282C274.073 38.8313 274.03 38.4283 273.865 38.073C273.701 37.7177 273.458 37.436 273.137 37.228C272.817 37.02 272.453 36.916 272.045 36.916C271.638 36.916 271.265 37.02 270.927 37.228C270.589 37.436 270.325 37.735 270.134 38.125C269.952 38.5063 269.879 38.9613 269.913 39.49C269.879 40.0013 269.957 40.452 270.147 40.842C270.347 41.2233 270.624 41.5223 270.979 41.739C271.343 41.947 271.738 42.051 272.162 42.051C272.63 42.051 273.025 41.9427 273.345 41.726C273.666 41.5093 273.926 41.232 274.125 40.894L275.139 41.414C275.001 41.7347 274.784 42.0293 274.489 42.298C274.203 42.558 273.861 42.766 273.462 42.922C273.072 43.078 272.635 43.156 272.149 43.156ZM278.523 43L276.118 35.993H277.457L279.368 41.856L278.9 41.843L280.772 35.993H281.916L283.788 41.843L283.32 41.856L285.244 35.993H286.57L284.165 43H283.008L281.162 37.15H281.526L279.68 43H278.523ZM290.041 43V33.315H293.213C294.192 33.315 295.046 33.5143 295.774 33.913C296.502 34.3117 297.065 34.875 297.464 35.603C297.863 36.3223 298.062 37.1717 298.062 38.151C298.062 39.1217 297.863 39.971 297.464 40.699C297.065 41.427 296.502 41.9947 295.774 42.402C295.046 42.8007 294.192 43 293.213 43H290.041ZM291.315 41.83H293.226C293.945 41.83 294.565 41.6783 295.085 41.375C295.614 41.0717 296.021 40.647 296.307 40.101C296.593 39.5463 296.736 38.8963 296.736 38.151C296.736 37.397 296.589 36.747 296.294 36.201C296.008 35.655 295.601 35.2347 295.072 34.94C294.552 34.6367 293.937 34.485 293.226 34.485H291.315V41.83ZM302.758 43.156C302.082 43.156 301.479 42.9957 300.951 42.675C300.422 42.3543 300.006 41.9167 299.703 41.362C299.399 40.7987 299.248 40.1703 299.248 39.477C299.248 38.775 299.395 38.151 299.69 37.605C299.993 37.059 300.4 36.63 300.912 36.318C301.432 35.9973 302.012 35.837 302.654 35.837C303.174 35.837 303.633 35.9323 304.032 36.123C304.439 36.305 304.781 36.5563 305.059 36.877C305.345 37.189 305.561 37.5487 305.709 37.956C305.865 38.3547 305.943 38.7707 305.943 39.204C305.943 39.2993 305.934 39.4077 305.917 39.529C305.908 39.6417 305.895 39.75 305.878 39.854H300.132V38.814H305.176L304.604 39.282C304.682 38.8313 304.638 38.4283 304.474 38.073C304.309 37.7177 304.066 37.436 303.746 37.228C303.425 37.02 303.061 36.916 302.654 36.916C302.246 36.916 301.874 37.02 301.536 37.228C301.198 37.436 300.933 37.735 300.743 38.125C300.561 38.5063 300.487 38.9613 300.522 39.49C300.487 40.0013 300.565 40.452 300.756 40.842C300.955 41.2233 301.232 41.5223 301.588 41.739C301.952 41.947 302.346 42.051 302.771 42.051C303.239 42.051 303.633 41.9427 303.954 41.726C304.274 41.5093 304.534 41.232 304.734 40.894L305.748 41.414C305.609 41.7347 305.392 42.0293 305.098 42.298C304.812 42.558 304.469 42.766 304.071 42.922C303.681 43.078 303.243 43.156 302.758 43.156ZM307.519 43V33.159H308.728V43H307.519ZM310.604 43V33.159H311.813V37.358L311.592 37.241C311.765 36.799 312.043 36.4567 312.424 36.214C312.814 35.9627 313.269 35.837 313.789 35.837C314.292 35.837 314.738 35.9497 315.128 36.175C315.527 36.4003 315.839 36.7123 316.064 37.111C316.298 37.5097 316.415 37.9603 316.415 38.463V43H315.193V38.853C315.193 38.463 315.119 38.1337 314.972 37.865C314.833 37.5963 314.638 37.3883 314.387 37.241C314.136 37.085 313.845 37.007 313.516 37.007C313.195 37.007 312.905 37.085 312.645 37.241C312.385 37.3883 312.181 37.6007 312.034 37.878C311.887 38.1467 311.813 38.4717 311.813 38.853V43H310.604ZM318.145 43V35.993H319.354V43H318.145ZM318.145 34.875V33.315H319.354V34.875H318.145Z" fill="#C0C0C0"/>
</svg>
