<svg width="398" height="204" viewBox="0 0 398 204" fill="none" xmlns="http://www.w3.org/2000/svg">
<line x1="20.25" y1="77.2329" x2="370.75" y2="77.2329" stroke="#F2F2F2" stroke-width="0.5" stroke-linecap="round" stroke-dasharray="4 4"/>
<rect x="32" y="68" width="12" height="77" rx="6" fill="#5A5A5A"/>
<rect x="63.5" y="55" width="12" height="90" rx="6" fill="#E85F35"/>
<rect x="95" y="78" width="12" height="67" rx="6" fill="#5A5A5A"/>
<rect x="126.5" y="96" width="12" height="49" rx="6" fill="#009421"/>
<rect x="158" y="60" width="12" height="85" rx="6" fill="#E85F35"/>
<rect x="189.5" y="77" width="12" height="68" rx="6" fill="#5A5A5A"/>
<rect x="221" y="89" width="12" height="56" rx="6" fill="#009421"/>
<rect x="252.5" y="66" width="12" height="79" rx="6" fill="#5A5A5A"/>
<rect x="284" y="81" width="12" height="64" rx="6" fill="#5A5A5A"/>
<rect x="315.5" y="72" width="12" height="73" rx="6" fill="#5A5A5A"/>
<rect x="347" y="84" width="12" height="61" rx="6" fill="#028DD2"/>
<path d="M28.462 165V163.845H28.9135C29.2635 163.845 29.5435 163.743 29.7535 163.54C29.9635 163.33 30.0685 163.05 30.0685 162.7V157.177H31.297V162.658C31.297 163.134 31.199 163.547 31.003 163.897C30.814 164.247 30.5375 164.52 30.1735 164.716C29.8165 164.905 29.3965 165 28.9135 165H28.462ZM34.4853 165.126C34.1003 165.126 33.7608 165.059 33.4668 164.926C33.1798 164.786 32.9558 164.597 32.7948 164.359C32.6338 164.114 32.5533 163.827 32.5533 163.498C32.5533 163.19 32.6198 162.914 32.7528 162.669C32.8928 162.424 33.1063 162.217 33.3933 162.049C33.6803 161.881 34.0408 161.762 34.4748 161.692L36.4488 161.367V162.302L34.7058 162.606C34.3908 162.662 34.1598 162.763 34.0128 162.91C33.8658 163.05 33.7923 163.232 33.7923 163.457C33.7923 163.673 33.8728 163.852 34.0338 163.992C34.2018 164.125 34.4153 164.191 34.6743 164.191C34.9963 164.191 35.2763 164.121 35.5143 163.981C35.7593 163.841 35.9483 163.656 36.0813 163.425C36.2143 163.187 36.2808 162.924 36.2808 162.637V161.178C36.2808 160.898 36.1758 160.67 35.9658 160.495C35.7628 160.313 35.4898 160.222 35.1468 160.222C34.8318 160.222 34.5553 160.306 34.3173 160.474C34.0863 160.635 33.9148 160.845 33.8028 161.104L32.8158 160.611C32.9208 160.331 33.0923 160.086 33.3303 159.876C33.5683 159.659 33.8448 159.491 34.1598 159.372C34.4818 159.253 34.8213 159.193 35.1783 159.193C35.6263 159.193 36.0218 159.277 36.3648 159.445C36.7148 159.613 36.9843 159.848 37.1733 160.149C37.3693 160.443 37.4673 160.786 37.4673 161.178V165H36.3333V163.971L36.5748 164.002C36.4418 164.233 36.2703 164.433 36.0603 164.601C35.8573 164.769 35.6228 164.898 35.3568 164.989C35.0978 165.081 34.8073 165.126 34.4853 165.126ZM38.8546 165V159.319H39.9886V160.432L39.8521 160.285C39.9921 159.928 40.2161 159.659 40.5241 159.477C40.8321 159.288 41.1891 159.193 41.5951 159.193C42.0151 159.193 42.3861 159.284 42.7081 159.466C43.0301 159.648 43.2821 159.9 43.4641 160.222C43.6461 160.544 43.7371 160.915 43.7371 161.335V165H42.5611V161.65C42.5611 161.363 42.5086 161.122 42.4036 160.926C42.2986 160.723 42.1481 160.569 41.9521 160.464C41.7631 160.352 41.5461 160.296 41.3011 160.296C41.0561 160.296 40.8356 160.352 40.6396 160.464C40.4506 160.569 40.3036 160.723 40.1986 160.926C40.0936 161.129 40.0411 161.37 40.0411 161.65V165H38.8546Z" fill="#8F8F8F"/>
<path d="M131.449 165L134.2 157.177H135.733L138.484 165H137.161L136.562 163.246H133.381L132.772 165H131.449ZM133.738 162.144H136.184L134.798 158.049H135.145L133.738 162.144ZM139.296 167.1V159.319H140.43V160.495L140.294 160.222C140.504 159.9 140.784 159.648 141.134 159.466C141.484 159.284 141.883 159.193 142.331 159.193C142.87 159.193 143.353 159.323 143.78 159.582C144.214 159.841 144.553 160.194 144.798 160.642C145.05 161.09 145.176 161.594 145.176 162.154C145.176 162.714 145.05 163.218 144.798 163.666C144.553 164.114 144.217 164.471 143.79 164.737C143.363 164.996 142.877 165.126 142.331 165.126C141.89 165.126 141.487 165.035 141.123 164.853C140.766 164.671 140.49 164.408 140.294 164.065L140.483 163.845V167.1H139.296ZM142.215 164.023C142.551 164.023 142.849 163.943 143.108 163.782C143.367 163.621 143.57 163.4 143.717 163.12C143.871 162.833 143.948 162.511 143.948 162.154C143.948 161.797 143.871 161.479 143.717 161.199C143.57 160.919 143.367 160.698 143.108 160.537C142.849 160.376 142.551 160.296 142.215 160.296C141.886 160.296 141.589 160.376 141.323 160.537C141.064 160.698 140.857 160.919 140.703 161.199C140.556 161.479 140.483 161.797 140.483 162.154C140.483 162.511 140.556 162.833 140.703 163.12C140.857 163.4 141.064 163.621 141.323 163.782C141.589 163.943 141.886 164.023 142.215 164.023ZM146.33 165V159.319H147.464V160.464L147.359 160.296C147.485 159.925 147.688 159.659 147.968 159.498C148.248 159.33 148.584 159.246 148.976 159.246H149.323V160.327H148.829C148.437 160.327 148.119 160.45 147.874 160.695C147.636 160.933 147.517 161.276 147.517 161.724V165H146.33Z" fill="#8F8F8F"/>
<path d="M236.782 165L239.533 157.177H241.066L243.817 165H242.494L241.896 163.246H238.714L238.105 165H236.782ZM239.071 162.144H241.518L240.132 158.049H240.478L239.071 162.144ZM246.554 165.126C246.127 165.126 245.752 165.031 245.43 164.842C245.108 164.646 244.856 164.377 244.674 164.034C244.499 163.684 244.412 163.281 244.412 162.826V159.319H245.598V162.721C245.598 162.98 245.651 163.208 245.756 163.404C245.861 163.6 246.008 163.754 246.197 163.866C246.386 163.971 246.603 164.023 246.848 164.023C247.1 164.023 247.32 163.967 247.509 163.855C247.698 163.743 247.845 163.586 247.95 163.383C248.062 163.18 248.118 162.942 248.118 162.669V159.319H249.294V165H248.171V163.887L248.297 164.034C248.164 164.384 247.943 164.653 247.635 164.842C247.327 165.031 246.967 165.126 246.554 165.126ZM253.42 167.31C253.007 167.31 252.626 167.244 252.276 167.111C251.926 166.978 251.625 166.792 251.373 166.554C251.121 166.323 250.932 166.05 250.806 165.735L251.898 165.284C251.996 165.55 252.174 165.77 252.433 165.945C252.699 166.12 253.025 166.208 253.41 166.208C253.711 166.208 253.98 166.148 254.218 166.029C254.456 165.917 254.645 165.749 254.785 165.525C254.925 165.308 254.995 165.046 254.995 164.737V163.457L255.205 163.698C255.009 164.062 254.736 164.338 254.386 164.527C254.043 164.716 253.655 164.811 253.221 164.811C252.696 164.811 252.223 164.688 251.803 164.443C251.383 164.198 251.051 163.862 250.806 163.435C250.568 163.008 250.449 162.529 250.449 161.997C250.449 161.458 250.568 160.978 250.806 160.558C251.051 160.138 251.38 159.806 251.793 159.561C252.206 159.316 252.678 159.193 253.21 159.193C253.644 159.193 254.029 159.288 254.365 159.477C254.708 159.659 254.988 159.925 255.205 160.275L255.048 160.569V159.319H256.171V164.737C256.171 165.228 256.052 165.665 255.814 166.05C255.583 166.442 255.261 166.75 254.848 166.974C254.435 167.198 253.959 167.31 253.42 167.31ZM253.357 163.708C253.672 163.708 253.952 163.635 254.197 163.488C254.442 163.334 254.635 163.131 254.775 162.879C254.922 162.62 254.995 162.329 254.995 162.007C254.995 161.685 254.922 161.395 254.775 161.136C254.628 160.877 254.432 160.674 254.187 160.527C253.942 160.373 253.665 160.296 253.357 160.296C253.035 160.296 252.748 160.373 252.496 160.527C252.244 160.674 252.045 160.877 251.898 161.136C251.758 161.388 251.688 161.678 251.688 162.007C251.688 162.322 251.758 162.609 251.898 162.868C252.045 163.127 252.244 163.334 252.496 163.488C252.748 163.635 253.035 163.708 253.357 163.708Z" fill="#8F8F8F"/>
<path d="M344.809 165V157.177H345.806L350.195 163.236L349.723 163.309V157.177H350.951V165H349.954L345.596 158.899L346.048 158.815V165H344.809ZM355.196 165.126C354.65 165.126 354.149 164.996 353.694 164.737C353.246 164.478 352.889 164.125 352.623 163.677C352.357 163.229 352.224 162.721 352.224 162.154C352.224 161.58 352.357 161.073 352.623 160.632C352.889 160.184 353.246 159.834 353.694 159.582C354.142 159.323 354.643 159.193 355.196 159.193C355.756 159.193 356.256 159.323 356.697 159.582C357.145 159.834 357.499 160.184 357.758 160.632C358.024 161.073 358.157 161.58 358.157 162.154C358.157 162.728 358.024 163.239 357.758 163.688C357.492 164.135 357.135 164.489 356.687 164.748C356.239 165 355.742 165.126 355.196 165.126ZM355.196 164.023C355.532 164.023 355.829 163.943 356.088 163.782C356.347 163.621 356.55 163.4 356.697 163.12C356.851 162.833 356.928 162.511 356.928 162.154C356.928 161.797 356.851 161.479 356.697 161.199C356.55 160.919 356.347 160.698 356.088 160.537C355.829 160.376 355.532 160.296 355.196 160.296C354.867 160.296 354.569 160.376 354.303 160.537C354.044 160.698 353.838 160.919 353.684 161.199C353.537 161.479 353.463 161.797 353.463 162.154C353.463 162.511 353.537 162.833 353.684 163.12C353.838 163.4 354.044 163.621 354.303 163.782C354.569 163.943 354.867 164.023 355.196 164.023ZM360.861 165L358.635 159.319H359.927L361.638 163.95H361.166L362.877 159.319H364.179L361.943 165H360.861Z" fill="#8F8F8F"/>
<rect x="36" y="176" width="2" height="8" rx="1" fill="#F2F2F2"/>
<rect x="62.5833" y="181" width="2" height="3" rx="1" fill="#F2F2F2"/>
<rect x="89.1667" y="181" width="2" height="3" rx="1" fill="#F2F2F2"/>
<rect x="115.75" y="181" width="2" height="3" rx="1" fill="#F2F2F2"/>
<rect x="142.333" y="176" width="2" height="8" rx="1" fill="#F2F2F2"/>
<rect x="168.917" y="181" width="2" height="3" rx="1" fill="#F2F2F2"/>
<rect x="195.5" y="181" width="2" height="3" rx="1" fill="#F2F2F2"/>
<rect x="222.083" y="181" width="2" height="3" rx="1" fill="#F2F2F2"/>
<rect x="248.667" y="176" width="2" height="8" rx="1" fill="#F2F2F2"/>
<rect x="275.25" y="181" width="2" height="3" rx="1" fill="#F2F2F2"/>
<rect x="301.833" y="181" width="2" height="3" rx="1" fill="#F2F2F2"/>
<rect x="328.417" y="181" width="2" height="3" rx="1" fill="#F2F2F2"/>
<rect x="355" y="176" width="2" height="8" rx="1" fill="#F2F2F2"/>
<rect x="165" y="23" width="215" height="28.9658" rx="12" fill="#5A5A5A"/>
<path d="M188.583 39.4573C188.797 39.4197 189.02 39.4879 189.204 39.647C189.388 39.8062 189.517 40.0432 189.564 40.306C189.61 40.5687 189.569 40.8357 189.451 41.0481C189.333 41.2605 189.146 41.401 188.932 41.4387L188.395 41.5334C188.609 41.4957 188.832 41.564 189.016 41.7231C189.2 41.8822 189.329 42.1193 189.376 42.382C189.422 42.6448 189.382 42.9118 189.263 43.1242C189.145 43.3366 188.958 43.4771 188.745 43.5148L185.253 44.1305C183.104 44.5093 183.409 43.0937 179.111 43.8514L178.063 37.9073L179.675 37.6232C180.756 37.354 181.681 36.5814 182.258 35.4655C182.834 34.3496 183.018 32.9759 182.772 31.6292C182.588 30.585 184.176 30.1688 184.525 32.1501C184.671 33.4551 184.716 34.765 184.661 36.0629L188.959 35.3052C189.172 35.2675 189.396 35.3357 189.58 35.4948C189.764 35.654 189.893 35.8911 189.939 36.1538C189.985 36.4165 189.945 36.6835 189.827 36.8959C189.708 37.1084 189.522 37.2489 189.308 37.2865L188.771 37.3813C188.985 37.3436 189.208 37.4118 189.392 37.5709C189.576 37.7301 189.705 37.9671 189.751 38.2299C189.798 38.4926 189.757 38.7596 189.639 38.972C189.521 39.1845 189.334 39.3249 189.12 39.3626L188.583 39.4573Z" fill="#FFDDA1" stroke="#272727" stroke-width="0.75" stroke-linecap="round" stroke-linejoin="round"/>
<path d="M195.915 40.9829V33.3465H198.779C199.365 33.3465 199.858 33.4559 200.255 33.6747C200.655 33.8934 200.957 34.1942 201.161 34.577C201.368 34.9573 201.471 35.3899 201.471 35.8746C201.471 36.3643 201.368 36.7993 201.161 37.1796C200.955 37.56 200.651 37.8595 200.248 38.0783C199.845 38.2945 199.349 38.4027 198.76 38.4027H196.862V37.2654H198.574C198.917 37.2654 199.198 37.2057 199.416 37.0864C199.635 36.9671 199.797 36.803 199.901 36.5942C200.008 36.3854 200.061 36.1456 200.061 35.8746C200.061 35.6036 200.008 35.365 199.901 35.1587C199.797 34.9524 199.634 34.792 199.413 34.6777C199.194 34.5609 198.912 34.5024 198.566 34.5024H197.298V40.9829H195.915ZM202.613 40.9829V35.2556H203.921V36.2102H203.981C204.086 35.8796 204.265 35.6248 204.518 35.4458C204.774 35.2643 205.066 35.1736 205.394 35.1736C205.469 35.1736 205.552 35.1773 205.644 35.1848C205.739 35.1898 205.817 35.1985 205.879 35.2109V36.4525C205.822 36.4327 205.731 36.4153 205.607 36.4003C205.485 36.3829 205.367 36.3742 205.253 36.3742C205.007 36.3742 204.785 36.4277 204.589 36.5346C204.395 36.639 204.242 36.7844 204.13 36.9708C204.018 37.1573 203.963 37.3723 203.963 37.6159V40.9829H202.613ZM209.038 41.0948C208.479 41.0948 207.994 40.9717 207.584 40.7256C207.174 40.4795 206.856 40.1353 206.629 39.6928C206.406 39.2503 206.294 38.7333 206.294 38.1416C206.294 37.55 206.406 37.0317 206.629 36.5868C206.856 36.1418 207.174 35.7963 207.584 35.5502C207.994 35.3041 208.479 35.1811 209.038 35.1811C209.598 35.1811 210.082 35.3041 210.492 35.5502C210.903 35.7963 211.219 36.1418 211.443 36.5868C211.669 37.0317 211.783 37.55 211.783 38.1416C211.783 38.7333 211.669 39.2503 211.443 39.6928C211.219 40.1353 210.903 40.4795 210.492 40.7256C210.082 40.9717 209.598 41.0948 209.038 41.0948ZM209.046 40.0134C209.349 40.0134 209.602 39.9302 209.806 39.7636C210.01 39.5946 210.162 39.3684 210.261 39.085C210.363 38.8016 210.414 38.4859 210.414 38.1379C210.414 37.7874 210.363 37.4705 210.261 37.1871C210.162 36.9012 210.01 36.6738 209.806 36.5047C209.602 36.3357 209.349 36.2512 209.046 36.2512C208.735 36.2512 208.476 36.3357 208.27 36.5047C208.066 36.6738 207.913 36.9012 207.811 37.1871C207.712 37.4705 207.662 37.7874 207.662 38.1379C207.662 38.4859 207.712 38.8016 207.811 39.085C207.913 39.3684 208.066 39.5946 208.27 39.7636C208.476 39.9302 208.735 40.0134 209.046 40.0134ZM212.928 35.2556H214.278V41.311C214.278 41.7237 214.2 42.0642 214.043 42.3327C213.886 42.6012 213.66 42.8013 213.364 42.933C213.069 43.0648 212.709 43.1306 212.287 43.1306C212.237 43.1306 212.191 43.1294 212.149 43.1269C212.107 43.1269 212.061 43.1257 212.011 43.1232V42.0232C212.048 42.0257 212.082 42.0269 212.112 42.0269C212.141 42.0294 212.172 42.0307 212.205 42.0307C212.463 42.0307 212.649 41.9673 212.76 41.8405C212.872 41.7162 212.928 41.5335 212.928 41.2924V35.2556ZM213.599 34.4428C213.383 34.4428 213.198 34.3719 213.044 34.2302C212.892 34.0861 212.816 33.9133 212.816 33.712C212.816 33.5081 212.892 33.3354 213.044 33.1937C213.198 33.0495 213.383 32.9774 213.599 32.9774C213.813 32.9774 213.996 33.0495 214.147 33.1937C214.302 33.3354 214.379 33.5081 214.379 33.712C214.379 33.9133 214.302 34.0861 214.147 34.2302C213.996 34.3719 213.813 34.4428 213.599 34.4428ZM218.201 41.0948C217.627 41.0948 217.131 40.9755 216.714 40.7368C216.299 40.4957 215.979 40.1551 215.755 39.7152C215.532 39.2727 215.42 38.7519 215.42 38.1528C215.42 37.5637 215.532 37.0467 215.755 36.6017C215.982 36.1543 216.297 35.8062 216.703 35.5577C217.108 35.3066 217.584 35.1811 218.131 35.1811C218.484 35.1811 218.817 35.2382 219.13 35.3526C219.446 35.4644 219.724 35.6384 219.965 35.8746C220.209 36.1108 220.4 36.4115 220.539 36.7769C220.679 37.1399 220.748 37.5724 220.748 38.0745V38.4884H216.054V37.5786H219.454C219.452 37.3201 219.396 37.0902 219.287 36.8888C219.177 36.685 219.024 36.5246 218.828 36.4078C218.634 36.291 218.408 36.2326 218.149 36.2326C217.873 36.2326 217.631 36.2997 217.422 36.4339C217.213 36.5657 217.051 36.7397 216.934 36.9559C216.819 37.1697 216.761 37.4046 216.758 37.6606V38.4549C216.758 38.788 216.819 39.0738 216.941 39.3125C217.063 39.5486 217.233 39.7301 217.452 39.8568C217.671 39.9811 217.927 40.0433 218.22 40.0433C218.416 40.0433 218.594 40.0159 218.753 39.9612C218.912 39.9041 219.05 39.8208 219.167 39.7114C219.284 39.6021 219.372 39.4666 219.432 39.305L220.692 39.4467C220.613 39.7798 220.461 40.0706 220.237 40.3192C220.016 40.5653 219.733 40.7567 219.387 40.8934C219.042 41.0277 218.646 41.0948 218.201 41.0948ZM224.388 41.0948C223.817 41.0948 223.326 40.9692 222.915 40.7182C222.508 40.4671 222.193 40.1203 221.972 39.6779C221.753 39.2329 221.644 38.7208 221.644 38.1416C221.644 37.56 221.756 37.0467 221.98 36.6017C222.203 36.1543 222.519 35.8062 222.927 35.5577C223.337 35.3066 223.822 35.1811 224.381 35.1811C224.846 35.1811 225.257 35.2668 225.615 35.4383C225.975 35.6074 226.263 35.8473 226.476 36.158C226.69 36.4662 226.812 36.8267 226.842 37.2393H225.552C225.499 36.9634 225.375 36.7334 225.179 36.5495C224.985 36.3631 224.725 36.2698 224.399 36.2698C224.124 36.2698 223.881 36.3444 223.672 36.4936C223.464 36.6402 223.301 36.8515 223.184 37.1274C223.07 37.4034 223.012 37.734 223.012 38.1193C223.012 38.5095 223.07 38.8451 223.184 39.126C223.298 39.4044 223.459 39.6195 223.665 39.7711C223.874 39.9202 224.119 39.9948 224.399 39.9948C224.598 39.9948 224.776 39.9575 224.933 39.8829C225.092 39.8059 225.225 39.6953 225.332 39.5511C225.439 39.4069 225.512 39.2317 225.552 39.0253H226.842C226.809 39.4305 226.69 39.7897 226.484 40.1029C226.277 40.4137 225.997 40.6573 225.641 40.8338C225.286 41.0078 224.868 41.0948 224.388 41.0948ZM230.81 35.2556V36.2997H227.518V35.2556H230.81ZM228.33 33.8835H229.68V39.2603C229.68 39.4417 229.708 39.5809 229.762 39.6779C229.819 39.7723 229.894 39.837 229.986 39.8718C230.078 39.9066 230.18 39.924 230.292 39.924C230.376 39.924 230.453 39.9177 230.523 39.9053C230.595 39.8929 230.65 39.8817 230.687 39.8718L230.914 40.927C230.842 40.9518 230.739 40.9792 230.605 41.009C230.473 41.0388 230.312 41.0562 230.12 41.0612C229.782 41.0712 229.478 41.0202 229.207 40.9083C228.936 40.794 228.721 40.6175 228.562 40.3789C228.405 40.1402 228.328 39.8419 228.33 39.484V33.8835ZM234.413 41.0948C233.839 41.0948 233.343 40.9755 232.925 40.7368C232.51 40.4957 232.191 40.1551 231.967 39.7152C231.743 39.2727 231.631 38.7519 231.631 38.1528C231.631 37.5637 231.743 37.0467 231.967 36.6017C232.193 36.1543 232.509 35.8062 232.914 35.5577C233.319 35.3066 233.795 35.1811 234.342 35.1811C234.695 35.1811 235.028 35.2382 235.341 35.3526C235.657 35.4644 235.935 35.6384 236.177 35.8746C236.42 36.1108 236.612 36.4115 236.751 36.7769C236.89 37.1399 236.96 37.5724 236.96 38.0745V38.4884H232.265V37.5786H235.666C235.663 37.3201 235.607 37.0902 235.498 36.8888C235.389 36.685 235.236 36.5246 235.039 36.4078C234.845 36.291 234.619 36.2326 234.361 36.2326C234.085 36.2326 233.842 36.2997 233.634 36.4339C233.425 36.5657 233.262 36.7397 233.145 36.9559C233.031 37.1697 232.972 37.4046 232.97 37.6606V38.4549C232.97 38.788 233.031 39.0738 233.153 39.3125C233.274 39.5486 233.445 39.7301 233.663 39.8568C233.882 39.9811 234.138 40.0433 234.432 40.0433C234.628 40.0433 234.806 40.0159 234.965 39.9612C235.124 39.9041 235.262 39.8208 235.379 39.7114C235.495 39.6021 235.584 39.4666 235.643 39.305L236.904 39.4467C236.824 39.7798 236.672 40.0706 236.449 40.3192C236.228 40.5653 235.944 40.7567 235.599 40.8934C235.253 41.0277 234.858 41.0948 234.413 41.0948ZM240.227 41.0836C239.777 41.0836 239.374 40.968 239.019 40.7368C238.663 40.5056 238.382 40.1701 238.176 39.7301C237.97 39.2901 237.867 38.7556 237.867 38.1267C237.867 37.4904 237.971 36.9534 238.18 36.5159C238.391 36.0759 238.676 35.7441 239.034 35.5204C239.392 35.2942 239.791 35.1811 240.231 35.1811C240.566 35.1811 240.842 35.2382 241.058 35.3526C241.275 35.4644 241.446 35.5999 241.573 35.759C241.7 35.9156 241.798 36.0635 241.867 36.2027H241.923V33.3465H243.277V40.9829H241.95V40.0806H241.867C241.798 40.2198 241.697 40.3677 241.565 40.5243C241.434 40.6784 241.26 40.8101 241.043 40.9195C240.827 41.0289 240.555 41.0836 240.227 41.0836ZM240.603 39.9762C240.889 39.9762 241.133 39.8991 241.334 39.745C241.536 39.5884 241.688 39.3709 241.793 39.0925C241.897 38.8141 241.95 38.4897 241.95 38.1193C241.95 37.7489 241.897 37.427 241.793 37.1535C241.691 36.8801 241.539 36.6676 241.338 36.5159C241.139 36.3643 240.894 36.2885 240.603 36.2885C240.303 36.2885 240.052 36.3668 239.85 36.5234C239.649 36.68 239.497 36.8963 239.395 37.1722C239.293 37.4481 239.242 37.7638 239.242 38.1193C239.242 38.4772 239.293 38.7967 239.395 39.0775C239.5 39.356 239.653 39.5759 239.854 39.7375C240.058 39.8966 240.308 39.9762 240.603 39.9762ZM247.379 40.9829V33.3465H248.729V36.2027H248.785C248.855 36.0635 248.953 35.9156 249.08 35.759C249.206 35.5999 249.378 35.4644 249.594 35.3526C249.811 35.2382 250.086 35.1811 250.422 35.1811C250.865 35.1811 251.263 35.2942 251.619 35.5204C251.977 35.7441 252.26 36.0759 252.469 36.5159C252.68 36.9534 252.786 37.4904 252.786 38.1267C252.786 38.7556 252.683 39.2901 252.477 39.7301C252.27 40.1701 251.989 40.5056 251.634 40.7368C251.278 40.968 250.876 41.0836 250.426 41.0836C250.098 41.0836 249.825 41.0289 249.609 40.9195C249.393 40.8101 249.219 40.6784 249.087 40.5243C248.958 40.3677 248.857 40.2198 248.785 40.0806H248.707V40.9829H247.379ZM248.703 38.1193C248.703 38.4897 248.755 38.8141 248.86 39.0925C248.967 39.3709 249.119 39.5884 249.318 39.745C249.52 39.8991 249.763 39.9762 250.049 39.9762C250.347 39.9762 250.597 39.8966 250.799 39.7375C251 39.5759 251.152 39.356 251.254 39.0775C251.358 38.7967 251.41 38.4772 251.41 38.1193C251.41 37.7638 251.359 37.4481 251.257 37.1722C251.155 36.8963 251.004 36.68 250.802 36.5234C250.601 36.3668 250.35 36.2885 250.049 36.2885C249.761 36.2885 249.516 36.3643 249.315 36.5159C249.113 36.6676 248.96 36.8801 248.856 37.1535C248.754 37.427 248.703 37.7489 248.703 38.1193ZM253.934 40.9829V35.2556H255.283V40.9829H253.934ZM254.612 34.4428C254.398 34.4428 254.214 34.3719 254.06 34.2302C253.906 34.0861 253.829 33.9133 253.829 33.712C253.829 33.5081 253.906 33.3354 254.06 33.1937C254.214 33.0495 254.398 32.9774 254.612 32.9774C254.828 32.9774 255.012 33.0495 255.164 33.1937C255.318 33.3354 255.395 33.5081 255.395 33.712C255.395 33.9133 255.318 34.0861 255.164 34.2302C255.012 34.3719 254.828 34.4428 254.612 34.4428ZM258.021 33.3465V40.9829H256.671V33.3465H258.021ZM260.759 33.3465V40.9829H259.409V33.3465H260.759ZM264.751 40.9829V35.2556H266.101V40.9829H264.751ZM265.43 34.4428C265.216 34.4428 265.032 34.3719 264.878 34.2302C264.724 34.0861 264.647 33.9133 264.647 33.712C264.647 33.5081 264.724 33.3354 264.878 33.1937C265.032 33.0495 265.216 32.9774 265.43 32.9774C265.646 32.9774 265.83 33.0495 265.982 33.1937C266.136 33.3354 266.213 33.5081 266.213 33.712C266.213 33.9133 266.136 34.0861 265.982 34.2302C265.83 34.3719 265.646 34.4428 265.43 34.4428ZM272.016 36.7695L270.785 36.9037C270.751 36.7794 270.69 36.6626 270.603 36.5532C270.518 36.4438 270.404 36.3556 270.26 36.2885C270.115 36.2214 269.939 36.1878 269.73 36.1878C269.449 36.1878 269.213 36.2487 269.022 36.3705C268.833 36.4923 268.74 36.6502 268.742 36.8441C268.74 37.0106 268.8 37.1461 268.925 37.2505C269.052 37.3549 269.26 37.4407 269.551 37.5078L270.528 37.7166C271.07 37.8334 271.473 38.0186 271.736 38.2722C272.002 38.5257 272.136 38.8576 272.139 39.2677C272.136 39.6282 272.031 39.9463 271.822 40.2223C271.616 40.4957 271.329 40.7095 270.961 40.8636C270.593 41.0177 270.17 41.0948 269.693 41.0948C268.992 41.0948 268.428 40.9481 268 40.6548C267.572 40.359 267.318 39.9476 267.236 39.4206L268.552 39.2938C268.612 39.5523 268.738 39.7475 268.932 39.8792C269.126 40.011 269.378 40.0768 269.689 40.0768C270.01 40.0768 270.267 40.011 270.461 39.8792C270.657 39.7475 270.756 39.5847 270.756 39.3908C270.756 39.2267 270.692 39.0912 270.565 38.9843C270.441 38.8774 270.247 38.7954 269.984 38.7382L269.007 38.5332C268.457 38.4188 268.051 38.2262 267.787 37.9552C267.524 37.6818 267.393 37.3362 267.396 36.9186C267.393 36.5657 267.489 36.2599 267.683 36.0014C267.879 35.7404 268.152 35.539 268.5 35.3973C268.85 35.2532 269.254 35.1811 269.711 35.1811C270.383 35.1811 270.911 35.324 271.296 35.6099C271.684 35.8957 271.924 36.2823 272.016 36.7695ZM277.206 33.3465V40.9829H275.856V33.3465H277.206ZM281.13 41.0948C280.555 41.0948 280.06 40.9755 279.642 40.7368C279.227 40.4957 278.907 40.1551 278.684 39.7152C278.46 39.2727 278.348 38.7519 278.348 38.1528C278.348 37.5637 278.46 37.0467 278.684 36.6017C278.91 36.1543 279.226 35.8062 279.631 35.5577C280.036 35.3066 280.512 35.1811 281.059 35.1811C281.412 35.1811 281.745 35.2382 282.058 35.3526C282.374 35.4644 282.652 35.6384 282.893 35.8746C283.137 36.1108 283.328 36.4115 283.468 36.7769C283.607 37.1399 283.676 37.5724 283.676 38.0745V38.4884H278.982V37.5786H282.383C282.38 37.3201 282.324 37.0902 282.215 36.8888C282.105 36.685 281.952 36.5246 281.756 36.4078C281.562 36.291 281.336 36.2326 281.077 36.2326C280.802 36.2326 280.559 36.2997 280.35 36.4339C280.142 36.5657 279.979 36.7397 279.862 36.9559C279.748 37.1697 279.689 37.4046 279.687 37.6606V38.4549C279.687 38.788 279.748 39.0738 279.869 39.3125C279.991 39.5486 280.161 39.7301 280.38 39.8568C280.599 39.9811 280.855 40.0433 281.148 40.0433C281.345 40.0433 281.522 40.0159 281.682 39.9612C281.841 39.9041 281.979 39.8208 282.095 39.7114C282.212 39.6021 282.3 39.4666 282.36 39.305L283.62 39.4467C283.541 39.7798 283.389 40.0706 283.166 40.3192C282.944 40.5653 282.661 40.7567 282.315 40.8934C281.97 41.0277 281.575 41.0948 281.13 41.0948ZM289.345 36.7695L288.114 36.9037C288.08 36.7794 288.019 36.6626 287.932 36.5532C287.847 36.4438 287.733 36.3556 287.589 36.2885C287.445 36.2214 287.268 36.1878 287.059 36.1878C286.778 36.1878 286.542 36.2487 286.351 36.3705C286.162 36.4923 286.069 36.6502 286.071 36.8441C286.069 37.0106 286.13 37.1461 286.254 37.2505C286.381 37.3549 286.589 37.4407 286.88 37.5078L287.857 37.7166C288.399 37.8334 288.802 38.0186 289.065 38.2722C289.331 38.5257 289.465 38.8576 289.468 39.2677C289.465 39.6282 289.36 39.9463 289.151 40.2223C288.945 40.4957 288.658 40.7095 288.29 40.8636C287.922 41.0177 287.499 41.0948 287.022 41.0948C286.321 41.0948 285.757 40.9481 285.329 40.6548C284.902 40.359 284.647 39.9476 284.565 39.4206L285.881 39.2938C285.941 39.5523 286.067 39.7475 286.261 39.8792C286.455 40.011 286.707 40.0768 287.018 40.0768C287.339 40.0768 287.596 40.011 287.79 39.8792C287.986 39.7475 288.085 39.5847 288.085 39.3908C288.085 39.2267 288.021 39.0912 287.894 38.9843C287.77 38.8774 287.576 38.7954 287.313 38.7382L286.336 38.5332C285.787 38.4188 285.38 38.2262 285.117 37.9552C284.853 37.6818 284.723 37.3362 284.725 36.9186C284.723 36.5657 284.818 36.2599 285.012 36.0014C285.209 35.7404 285.481 35.539 285.829 35.3973C286.179 35.2532 286.583 35.1811 287.041 35.1811C287.712 35.1811 288.24 35.324 288.625 35.6099C289.013 35.8957 289.253 36.2823 289.345 36.7695ZM295.108 36.7695L293.877 36.9037C293.842 36.7794 293.781 36.6626 293.694 36.5532C293.61 36.4438 293.496 36.3556 293.351 36.2885C293.207 36.2214 293.031 36.1878 292.822 36.1878C292.541 36.1878 292.305 36.2487 292.113 36.3705C291.925 36.4923 291.831 36.6502 291.834 36.8441C291.831 37.0106 291.892 37.1461 292.017 37.2505C292.143 37.3549 292.352 37.4407 292.643 37.5078L293.62 37.7166C294.162 37.8334 294.564 38.0186 294.828 38.2722C295.094 38.5257 295.228 38.8576 295.231 39.2677C295.228 39.6282 295.123 39.9463 294.914 40.2223C294.707 40.4957 294.42 40.7095 294.052 40.8636C293.685 41.0177 293.262 41.0948 292.785 41.0948C292.084 41.0948 291.519 40.9481 291.092 40.6548C290.664 40.359 290.409 39.9476 290.327 39.4206L291.644 39.2938C291.703 39.5523 291.83 39.7475 292.024 39.8792C292.218 40.011 292.47 40.0768 292.781 40.0768C293.102 40.0768 293.359 40.011 293.553 39.8792C293.749 39.7475 293.847 39.5847 293.847 39.3908C293.847 39.2267 293.784 39.0912 293.657 38.9843C293.533 38.8774 293.339 38.7954 293.075 38.7382L292.099 38.5332C291.549 38.4188 291.143 38.2262 290.879 37.9552C290.616 37.6818 290.485 37.3362 290.488 36.9186C290.485 36.5657 290.581 36.2599 290.775 36.0014C290.971 35.7404 291.243 35.539 291.591 35.3973C291.942 35.2532 292.346 35.1811 292.803 35.1811C293.474 35.1811 294.003 35.324 294.388 35.6099C294.776 35.8957 295.016 36.2823 295.108 36.7695ZM301.808 35.2556V36.2997H298.516V35.2556H301.808ZM299.329 33.8835H300.678V39.2603C300.678 39.4417 300.706 39.5809 300.76 39.6779C300.817 39.7723 300.892 39.837 300.984 39.8718C301.076 39.9066 301.178 39.924 301.29 39.924C301.374 39.924 301.451 39.9177 301.521 39.9053C301.593 39.8929 301.648 39.8817 301.685 39.8718L301.912 40.927C301.84 40.9518 301.737 40.9792 301.603 41.009C301.471 41.0388 301.31 41.0562 301.118 41.0612C300.78 41.0712 300.476 41.0202 300.205 40.9083C299.934 40.794 299.719 40.6175 299.56 40.3789C299.403 40.1402 299.326 39.8419 299.329 39.484V33.8835ZM304.41 37.6271V40.9829H303.06V33.3465H304.38V36.2288H304.447C304.581 35.9057 304.789 35.6509 305.07 35.4644C305.353 35.2755 305.714 35.1811 306.151 35.1811C306.549 35.1811 306.896 35.2643 307.191 35.4309C307.487 35.5974 307.716 35.841 307.877 36.1617C308.042 36.4824 308.124 36.8739 308.124 37.3362V40.9829H306.774V37.5451C306.774 37.1598 306.674 36.8602 306.475 36.6464C306.279 36.4302 306.003 36.322 305.648 36.322C305.409 36.322 305.195 36.3742 305.006 36.4786C304.82 36.5806 304.673 36.7285 304.566 36.9224C304.462 37.1163 304.41 37.3512 304.41 37.6271ZM311.148 41.0985C310.785 41.0985 310.458 41.0339 310.167 40.9046C309.879 40.7729 309.65 40.579 309.481 40.3229C309.314 40.0669 309.231 39.7512 309.231 39.3758C309.231 39.0527 309.291 38.7855 309.41 38.5742C309.529 38.3629 309.692 38.1938 309.898 38.0671C310.105 37.9403 310.337 37.8446 310.596 37.78C310.857 37.7128 311.126 37.6644 311.405 37.6345C311.74 37.5997 312.013 37.5687 312.221 37.5413C312.43 37.5115 312.582 37.4668 312.676 37.4071C312.773 37.3449 312.822 37.2492 312.822 37.12V37.0976C312.822 36.8167 312.738 36.5992 312.572 36.4451C312.405 36.291 312.165 36.2139 311.852 36.2139C311.522 36.2139 311.259 36.286 311.065 36.4302C310.874 36.5744 310.745 36.7446 310.678 36.941L309.417 36.762C309.517 36.414 309.681 36.1232 309.91 35.8895C310.138 35.6534 310.418 35.4769 310.749 35.36C311.079 35.2407 311.445 35.1811 311.845 35.1811C312.121 35.1811 312.395 35.2134 312.669 35.278C312.942 35.3426 313.192 35.4495 313.418 35.5987C313.645 35.7453 313.826 35.9454 313.963 36.199C314.102 36.4525 314.171 36.7695 314.171 37.1498V40.9829H312.874V40.1962H312.829C312.747 40.3552 312.632 40.5044 312.482 40.6436C312.336 40.7803 312.151 40.8909 311.927 40.9755C311.706 41.0575 311.446 41.0985 311.148 41.0985ZM311.498 40.1067C311.769 40.1067 312.004 40.0532 312.203 39.9463C312.402 39.837 312.554 39.6928 312.661 39.5138C312.771 39.3348 312.825 39.1397 312.825 38.9284V38.2535C312.783 38.2883 312.711 38.3206 312.609 38.3505C312.51 38.3803 312.398 38.4064 312.274 38.4288C312.149 38.4511 312.026 38.471 311.904 38.4884C311.783 38.5058 311.677 38.5207 311.588 38.5332C311.386 38.5605 311.206 38.6052 311.047 38.6674C310.888 38.7295 310.762 38.8165 310.67 38.9284C310.578 39.0378 310.532 39.1795 310.532 39.3535C310.532 39.6021 310.623 39.7897 310.804 39.9165C310.986 40.0433 311.217 40.1067 311.498 40.1067ZM316.879 37.6271V40.9829H315.529V35.2556H316.819V36.2288H316.886C317.018 35.9082 317.228 35.6534 317.516 35.4644C317.807 35.2755 318.166 35.1811 318.594 35.1811C318.989 35.1811 319.333 35.2656 319.627 35.4346C319.922 35.6036 320.151 35.8485 320.313 36.1692C320.477 36.4898 320.558 36.8789 320.555 37.3362V40.9829H319.205V37.5451C319.205 37.1622 319.106 36.8627 318.907 36.6464C318.711 36.4302 318.438 36.322 318.09 36.322C317.854 36.322 317.644 36.3742 317.46 36.4786C317.279 36.5806 317.136 36.7285 317.031 36.9224C316.929 37.1163 316.879 37.3512 316.879 37.6271ZM326.18 41.0985C325.817 41.0985 325.49 41.0339 325.199 40.9046C324.911 40.7729 324.682 40.579 324.513 40.3229C324.346 40.0669 324.263 39.7512 324.263 39.3758C324.263 39.0527 324.323 38.7855 324.442 38.5742C324.562 38.3629 324.724 38.1938 324.931 38.0671C325.137 37.9403 325.369 37.8446 325.628 37.78C325.889 37.7128 326.159 37.6644 326.437 37.6345C326.773 37.5997 327.045 37.5687 327.254 37.5413C327.462 37.5115 327.614 37.4668 327.709 37.4071C327.805 37.3449 327.854 37.2492 327.854 37.12V37.0976C327.854 36.8167 327.771 36.5992 327.604 36.4451C327.438 36.291 327.198 36.2139 326.884 36.2139C326.554 36.2139 326.292 36.286 326.098 36.4302C325.906 36.5744 325.777 36.7446 325.71 36.941L324.45 36.762C324.549 36.414 324.713 36.1232 324.942 35.8895C325.171 35.6534 325.45 35.4769 325.781 35.36C326.111 35.2407 326.477 35.1811 326.877 35.1811C327.153 35.1811 327.428 35.2134 327.701 35.278C327.974 35.3426 328.224 35.4495 328.451 35.5987C328.677 35.7453 328.858 35.9454 328.995 36.199C329.134 36.4525 329.204 36.7695 329.204 37.1498V40.9829H327.906V40.1962H327.861C327.779 40.3552 327.664 40.5044 327.515 40.6436C327.368 40.7803 327.183 40.8909 326.959 40.9755C326.738 41.0575 326.478 41.0985 326.18 41.0985ZM326.53 40.1067C326.801 40.1067 327.036 40.0532 327.235 39.9463C327.434 39.837 327.587 39.6928 327.694 39.5138C327.803 39.3348 327.858 39.1397 327.858 38.9284V38.2535C327.815 38.2883 327.743 38.3206 327.641 38.3505C327.542 38.3803 327.43 38.4064 327.306 38.4288C327.182 38.4511 327.058 38.471 326.937 38.4884C326.815 38.5058 326.709 38.5207 326.62 38.5332C326.418 38.5605 326.238 38.6052 326.079 38.6674C325.92 38.7295 325.794 38.8165 325.702 38.9284C325.611 39.0378 325.565 39.1795 325.565 39.3535C325.565 39.6021 325.655 39.7897 325.837 39.9165C326.018 40.0433 326.249 40.1067 326.53 40.1067ZM335.472 35.2556L333.432 40.9829H331.941L329.901 35.2556H331.34L332.656 39.5101H332.716L334.036 35.2556H335.472ZM338.746 41.0948C338.172 41.0948 337.676 40.9755 337.259 40.7368C336.844 40.4957 336.524 40.1551 336.3 39.7152C336.077 39.2727 335.965 38.7519 335.965 38.1528C335.965 37.5637 336.077 37.0467 336.3 36.6017C336.527 36.1543 336.842 35.8062 337.247 35.5577C337.653 35.3066 338.129 35.1811 338.676 35.1811C339.029 35.1811 339.362 35.2382 339.675 35.3526C339.991 35.4644 340.269 35.6384 340.51 35.8746C340.754 36.1108 340.945 36.4115 341.084 36.7769C341.223 37.1399 341.293 37.5724 341.293 38.0745V38.4884H336.599V37.5786H339.999C339.997 37.3201 339.941 37.0902 339.831 36.8888C339.722 36.685 339.569 36.5246 339.373 36.4078C339.179 36.291 338.953 36.2326 338.694 36.2326C338.418 36.2326 338.176 36.2997 337.967 36.4339C337.758 36.5657 337.595 36.7397 337.479 36.9559C337.364 37.1697 337.306 37.4046 337.303 37.6606V38.4549C337.303 38.788 337.364 39.0738 337.486 39.3125C337.608 39.5486 337.778 39.7301 337.997 39.8568C338.216 39.9811 338.472 40.0433 338.765 40.0433C338.961 40.0433 339.139 40.0159 339.298 39.9612C339.457 39.9041 339.595 39.8208 339.712 39.7114C339.829 39.6021 339.917 39.4666 339.977 39.305L341.237 39.4467C341.158 39.7798 341.006 40.0706 340.782 40.3192C340.561 40.5653 340.278 40.7567 339.932 40.8934C339.587 41.0277 339.191 41.0948 338.746 41.0948ZM342.435 40.9829V35.2556H343.744V36.2102H343.803C343.908 35.8796 344.087 35.6248 344.34 35.4458C344.596 35.2643 344.888 35.1736 345.217 35.1736C345.291 35.1736 345.374 35.1773 345.466 35.1848C345.561 35.1898 345.639 35.1985 345.701 35.2109V36.4525C345.644 36.4327 345.553 36.4153 345.429 36.4003C345.307 36.3829 345.189 36.3742 345.075 36.3742C344.829 36.3742 344.608 36.4277 344.411 36.5346C344.217 36.639 344.064 36.7844 343.953 36.9708C343.841 37.1573 343.785 37.3723 343.785 37.6159V40.9829H342.435ZM348.144 41.0985C347.781 41.0985 347.454 41.0339 347.163 40.9046C346.875 40.7729 346.646 40.579 346.477 40.3229C346.31 40.0669 346.227 39.7512 346.227 39.3758C346.227 39.0527 346.287 38.7855 346.406 38.5742C346.525 38.3629 346.688 38.1938 346.895 38.0671C347.101 37.9403 347.333 37.8446 347.592 37.78C347.853 37.7128 348.122 37.6644 348.401 37.6345C348.736 37.5997 349.009 37.5687 349.217 37.5413C349.426 37.5115 349.578 37.4668 349.672 37.4071C349.769 37.3449 349.818 37.2492 349.818 37.12V37.0976C349.818 36.8167 349.735 36.5992 349.568 36.4451C349.401 36.291 349.162 36.2139 348.848 36.2139C348.518 36.2139 348.255 36.286 348.062 36.4302C347.87 36.5744 347.741 36.7446 347.674 36.941L346.414 36.762C346.513 36.414 346.677 36.1232 346.906 35.8895C347.134 35.6534 347.414 35.4769 347.745 35.36C348.075 35.2407 348.441 35.1811 348.841 35.1811C349.117 35.1811 349.391 35.2134 349.665 35.278C349.938 35.3426 350.188 35.4495 350.414 35.5987C350.641 35.7453 350.822 35.9454 350.959 36.199C351.098 36.4525 351.168 36.7695 351.168 37.1498V40.9829H349.87V40.1962H349.825C349.743 40.3552 349.628 40.5044 349.478 40.6436C349.332 40.7803 349.147 40.8909 348.923 40.9755C348.702 41.0575 348.442 41.0985 348.144 41.0985ZM348.494 40.1067C348.765 40.1067 349 40.0532 349.199 39.9463C349.398 39.837 349.551 39.6928 349.657 39.5138C349.767 39.3348 349.822 39.1397 349.822 38.9284V38.2535C349.779 38.2883 349.707 38.3206 349.605 38.3505C349.506 38.3803 349.394 38.4064 349.27 38.4288C349.145 38.4511 349.022 38.471 348.901 38.4884C348.779 38.5058 348.673 38.5207 348.584 38.5332C348.382 38.5605 348.202 38.6052 348.043 38.6674C347.884 38.7295 347.758 38.8165 347.666 38.9284C347.574 39.0378 347.528 39.1795 347.528 39.3535C347.528 39.6021 347.619 39.7897 347.801 39.9165C347.982 40.0433 348.213 40.1067 348.494 40.1067ZM355.016 43.25C354.531 43.25 354.115 43.1841 353.766 43.0523C353.418 42.9231 353.139 42.7491 352.928 42.5303C352.716 42.3116 352.57 42.0692 352.488 41.8032L353.703 41.5087C353.758 41.6205 353.837 41.7311 353.942 41.8405C354.046 41.9524 354.187 42.0443 354.363 42.1164C354.542 42.191 354.767 42.2283 355.038 42.2283C355.421 42.2283 355.738 42.1351 355.989 41.9486C356.24 41.7647 356.365 41.4614 356.365 41.0388V39.9538H356.298C356.229 40.093 356.127 40.2359 355.993 40.3826C355.861 40.5293 355.686 40.6523 355.467 40.7517C355.251 40.8512 354.978 40.9009 354.65 40.9009C354.21 40.9009 353.811 40.7977 353.453 40.5914C353.098 40.3826 352.814 40.0719 352.603 39.6592C352.394 39.2441 352.29 38.7246 352.29 38.1006C352.29 37.4717 352.394 36.941 352.603 36.5085C352.814 36.0735 353.099 35.7441 353.457 35.5204C353.815 35.2942 354.214 35.1811 354.654 35.1811C354.99 35.1811 355.265 35.2382 355.482 35.3526C355.7 35.4644 355.874 35.5999 356.004 35.759C356.133 35.9156 356.231 36.0635 356.298 36.2027H356.373V35.2556H357.704V41.0761C357.704 41.5658 357.587 41.971 357.353 42.2917C357.12 42.6123 356.8 42.8522 356.395 43.0113C355.99 43.1704 355.53 43.25 355.016 43.25ZM355.027 39.8419C355.313 39.8419 355.556 39.7723 355.758 39.6331C355.959 39.4939 356.112 39.2938 356.216 39.0328C356.321 38.7718 356.373 38.4586 356.373 38.0932C356.373 37.7327 356.321 37.417 356.216 37.1461C356.114 36.8751 355.963 36.6651 355.761 36.5159C355.562 36.3643 355.318 36.2885 355.027 36.2885C354.726 36.2885 354.475 36.3668 354.274 36.5234C354.072 36.68 353.921 36.895 353.819 37.1685C353.717 37.4394 353.666 37.7476 353.666 38.0932C353.666 38.4437 353.717 38.7507 353.819 39.0142C353.923 39.2752 354.076 39.479 354.277 39.6257C354.481 39.7698 354.731 39.8419 355.027 39.8419ZM361.623 41.0948C361.049 41.0948 360.553 40.9755 360.135 40.7368C359.72 40.4957 359.401 40.1551 359.177 39.7152C358.953 39.2727 358.841 38.7519 358.841 38.1528C358.841 37.5637 358.953 37.0467 359.177 36.6017C359.403 36.1543 359.719 35.8062 360.124 35.5577C360.529 35.3066 361.005 35.1811 361.552 35.1811C361.905 35.1811 362.238 35.2382 362.551 35.3526C362.867 35.4644 363.145 35.6384 363.387 35.8746C363.63 36.1108 363.822 36.4115 363.961 36.7769C364.1 37.1399 364.17 37.5724 364.17 38.0745V38.4884H359.475V37.5786H362.876C362.873 37.3201 362.817 37.0902 362.708 36.8888C362.599 36.685 362.446 36.5246 362.249 36.4078C362.055 36.291 361.829 36.2326 361.571 36.2326C361.295 36.2326 361.052 36.2997 360.844 36.4339C360.635 36.5657 360.472 36.7397 360.355 36.9559C360.241 37.1697 360.182 37.4046 360.18 37.6606V38.4549C360.18 38.788 360.241 39.0738 360.363 39.3125C360.484 39.5486 360.655 39.7301 360.873 39.8568C361.092 39.9811 361.348 40.0433 361.641 40.0433C361.838 40.0433 362.016 40.0159 362.175 39.9612C362.334 39.9041 362.472 39.8208 362.589 39.7114C362.705 39.6021 362.794 39.4666 362.853 39.305L364.114 39.4467C364.034 39.7798 363.882 40.0706 363.659 40.3192C363.437 40.5653 363.154 40.7567 362.809 40.8934C362.463 41.0277 362.068 41.0948 361.623 41.0948Z" fill="white"/>
<path fill-rule="evenodd" clip-rule="evenodd" d="M361.924 51.4829L344.979 51.4829C347.646 52.9441 349.738 55.2771 350.899 58.0989L352.364 61.6586C352.671 62.4065 353.729 62.4114 354.044 61.6664L355.407 58.4382C356.685 55.4131 358.998 52.9494 361.924 51.4829Z" fill="#5A5A5A"/>
</svg>
